<svg width="800" height="800" viewBox="0 0 800 800" fill="none" xmlns="http://www.w3.org/2000/svg">
  <rect width="800" height="800" rx="64" fill="#FFF0E6"/>
  <path d="M135 650L310 120H668L500 650H135Z" fill="#F26522" opacity="0.16"/>
  <rect x="240" y="144" width="320" height="520" rx="46" fill="#F26522"/>
  <rect x="278" y="96" width="244" height="86" rx="32" fill="#111111"/>
  <rect x="282" y="242" width="236" height="308" rx="28" fill="#FFFFFF"/>
  <path d="M282 328L518 246V242H282V328Z" fill="#111111"/>
  <path d="M282 476L518 398V550H282V476Z" fill="#FFD44D"/>
  <text x="400" y="298" text-anchor="middle" font-family="Arial Black, Arial" font-size="39" fill="#FFFFFF">FAST&amp;UP</text>
  <text x="400" y="384" text-anchor="middle" font-family="Arial Black, Arial" font-size="55" fill="#111111">ACTIVATE</text>
  <text x="400" y="431" text-anchor="middle" font-family="Arial" font-size="25" font-weight="700" fill="#F26522">PRE-WORKOUT</text>
  <text x="400" y="492" text-anchor="middle" font-family="Arial Black, Arial" font-size="38" fill="#111111">ENERGY</text>
  <path d="M386 592L422 520L414 578H454L384 690L398 610H352L386 592Z" fill="#111111"/>
</svg>
