<svg width="800" height="800" viewBox="0 0 800 800" fill="none" xmlns="http://www.w3.org/2000/svg">
  <rect width="800" height="800" rx="64" fill="#FFF9D7"/>
  <circle cx="202" cy="190" r="94" fill="#1E90FF" opacity="0.18"/>
  <circle cx="614" cy="608" r="138" fill="#FBBF24" opacity="0.22"/>
  <rect x="248" y="130" width="304" height="540" rx="56" fill="#FBBF24"/>
  <rect x="286" y="88" width="228" height="82" rx="30" fill="#1E90FF"/>
  <rect x="292" y="236" width="216" height="332" rx="28" fill="#FFFFFF"/>
  <path d="M292 328C340 292 430 292 508 328V236H292V328Z" fill="#1E90FF"/>
  <text x="400" y="290" text-anchor="middle" font-family="Arial Black, Arial" font-size="36" fill="#FFFFFF">FAST&amp;UP</text>
  <text x="400" y="382" text-anchor="middle" font-family="Arial Black, Arial" font-size="57" fill="#111111">KIDZ</text>
  <text x="400" y="432" text-anchor="middle" font-family="Arial Black, Arial" font-size="41" fill="#1E90FF">IMMUNITY</text>
  <text x="400" y="492" text-anchor="middle" font-family="Arial" font-size="24" font-weight="700" fill="#F26522">VIT C + ZINC</text>
  <path d="M400 596L422 642L472 650L436 686L444 736L400 712L356 736L364 686L328 650L378 642L400 596Z" fill="#F43F5E"/>
</svg>
