<svg width="800" height="800" viewBox="0 0 800 800" fill="none" xmlns="http://www.w3.org/2000/svg">
  <rect width="800" height="800" rx="64" fill="#EDFFF4"/>
  <path d="M136 652C224 446 370 236 660 156C612 406 456 614 136 652Z" fill="#169B62" opacity="0.18"/>
  <rect x="210" y="158" width="380" height="500" rx="62" fill="#169B62"/>
  <rect x="264" y="104" width="272" height="96" rx="36" fill="#111111"/>
  <rect x="272" y="258" width="256" height="304" rx="30" fill="#FFFFFF"/>
  <path d="M272 354C330 318 434 322 528 270V258H272V354Z" fill="#6B3F2A"/>
  <text x="400" y="316" text-anchor="middle" font-family="Arial Black, Arial" font-size="38" fill="#FFFFFF">FAST&amp;UP</text>
  <text x="400" y="396" text-anchor="middle" font-family="Arial Black, Arial" font-size="47" fill="#111111">PLANT</text>
  <text x="400" y="446" text-anchor="middle" font-family="Arial Black, Arial" font-size="45" fill="#169B62">PROTEIN</text>
  <text x="400" y="502" text-anchor="middle" font-family="Arial" font-size="25" font-weight="700" fill="#6B3F2A">24G COMPLETE</text>
  <path d="M374 612C338 566 354 526 400 504C446 526 462 566 426 612C414 596 386 596 374 612Z" fill="#169B62"/>
</svg>
