<svg width="800" height="800" viewBox="0 0 800 800" fill="none" xmlns="http://www.w3.org/2000/svg">
  <rect width="800" height="800" rx="64" fill="#F5F0FF"/>
  <circle cx="620" cy="610" r="154" fill="#7C3AED" opacity="0.14"/>
  <rect x="220" y="154" width="360" height="500" rx="58" fill="#111111"/>
  <rect x="268" y="104" width="264" height="92" rx="34" fill="#7C3AED"/>
  <rect x="276" y="252" width="248" height="302" rx="30" fill="#FFFFFF"/>
  <path d="M276 348C338 308 432 316 524 278V252H276V348Z" fill="#7C3AED"/>
  <path d="M276 492C344 454 444 466 524 424V554H276V492Z" fill="#1E90FF"/>
  <text x="400" y="312" text-anchor="middle" font-family="Arial Black, Arial" font-size="39" fill="#FFFFFF">FAST&amp;UP</text>
  <text x="400" y="398" text-anchor="middle" font-family="Arial Black, Arial" font-size="56" fill="#111111">RECOVER</text>
  <text x="400" y="444" text-anchor="middle" font-family="Arial" font-size="25" font-weight="700" fill="#7C3AED">BCAA + GLUTAMINE</text>
  <text x="400" y="504" text-anchor="middle" font-family="Arial Black, Arial" font-size="36" fill="#1E90FF">POST</text>
  <path d="M324 616H476" stroke="#7C3AED" stroke-width="24" stroke-linecap="round"/>
  <path d="M362 584V648M438 584V648" stroke="#7C3AED" stroke-width="20" stroke-linecap="round"/>
</svg>
