<svg width="800" height="800" viewBox="0 0 800 800" fill="none" xmlns="http://www.w3.org/2000/svg">
  <rect width="800" height="800" rx="64" fill="#E7F4FF"/>
  <circle cx="210" cy="180" r="108" fill="#1E90FF" opacity="0.18"/>
  <circle cx="615" cy="640" r="142" fill="#F26522" opacity="0.14"/>
  <rect x="270" y="120" width="260" height="560" rx="54" fill="#101010"/>
  <rect x="300" y="82" width="200" height="76" rx="28" fill="#F26522"/>
  <rect x="304" y="224" width="192" height="348" rx="24" fill="#FFFFFF"/>
  <path d="M304 304C348 268 406 268 496 304V224H304V304Z" fill="#1E90FF"/>
  <path d="M304 526C356 486 424 498 496 456V572H304V526Z" fill="#F26522"/>
  <text x="400" y="283" text-anchor="middle" font-family="Arial Black, Arial" font-size="42" fill="#FFFFFF">FAST&amp;UP</text>
  <text x="400" y="392" text-anchor="middle" font-family="Arial Black, Arial" font-size="64" fill="#111111">RELOAD</text>
  <text x="400" y="444" text-anchor="middle" font-family="Arial" font-size="27" font-weight="700" fill="#1E90FF">ELECTROLYTE</text>
  <text x="400" y="496" text-anchor="middle" font-family="Arial" font-size="22" font-weight="700" fill="#333333">HYDRATION FIZZ</text>
  <circle cx="352" cy="612" r="18" fill="#FF6B35"/>
  <circle cx="400" cy="612" r="18" fill="#FFD44D"/>
  <circle cx="448" cy="612" r="18" fill="#60C657"/>
</svg>
